# xmcd
#
# Track frame offsets:
#	150
#	19192
#	32515
#	47832
#	63750
#	84310
#	108495
#	122785
#	140267
#	165450
#
# Disc length: 2475 seconds
#
# Revision: 0
# Processed by: cddbd v1.5.2PL0 Copyright (c) Steve Scherf et al.
# Submitted via: EasyCDDAExtractor 10.0.5.1
#
DISCID=7709a90a
DTITLE=Macaferri and Asociados - Te Quiero Como Sos
DYEAR=1992
DGENRE=Alternative
TTITLE0=Bombacha veloz
TTITLE1=Te quiero como sos
TTITLE2=Mi pan de chicharron
TTITLE3=Amor gitano
TTITLE4=Haciendo zapping
TTITLE5=El oficio de ser mama
TTITLE6=Casta y pura
TTITLE7=Pobre Rafael
TTITLE8=No te escondas
TTITLE9=Bombacha veloz (Remix)
EXTD=
EXTT0=
EXTT1=
EXTT2=
EXTT3=
EXTT4=
EXTT5=
EXTT6=
EXTT7=
EXTT8=
EXTT9=
PLAYORDER=
